<svg width="16" height="17" viewBox="0 0 16 17" fill="none" xmlns="http://www.w3.org/2000/svg">
<g clip-path="url(#clip0_2_1068)">
<path d="M8.71875 11.5083C8.71875 12.1976 9.2795 12.7583 9.96875 12.7583H11.4375C12.1267 12.7583 12.6875 12.1976 12.6875 11.5083V10.0396C12.6875 9.3503 12.1267 8.78955 11.4375 8.78955H9.96875C9.2795 8.78955 8.71875 9.3503 8.71875 10.0396V11.5083ZM9.96875 10.0396H11.4375L11.4383 11.5083C11.4383 11.5083 11.4381 11.5083 11.4375 11.5083H9.96875V10.0396Z" fill="white"/>
<path d="M12.0625 7.3208C12.4077 7.3208 12.6875 7.04098 12.6875 6.6958C12.6875 6.35062 12.4077 6.0708 12.0625 6.0708C11.7173 6.0708 11.4375 6.35062 11.4375 6.6958C11.4375 7.04098 11.7173 7.3208 12.0625 7.3208Z" fill="white"/>
<path d="M9.34375 7.3208C9.68893 7.3208 9.96875 7.04098 9.96875 6.6958C9.96875 6.35062 9.68893 6.0708 9.34375 6.0708C8.99857 6.0708 8.71875 6.35062 8.71875 6.6958C8.71875 7.04098 8.99857 7.3208 9.34375 7.3208Z" fill="white"/>
<path d="M15.375 11.1333C15.7202 11.1333 16 10.8535 16 10.5083V3.8833C16 2.5048 14.8785 1.3833 13.5 1.3833H12.6875V0.758301C12.6875 0.413113 12.4077 0.133301 12.0625 0.133301C11.7173 0.133301 11.4375 0.413113 11.4375 0.758301V1.3833H8.59375V0.758301C8.59375 0.413113 8.31394 0.133301 7.96875 0.133301C7.62356 0.133301 7.34375 0.413113 7.34375 0.758301V1.3833H4.53125V0.758301C4.53125 0.413113 4.25144 0.133301 3.90625 0.133301C3.56106 0.133301 3.28125 0.413113 3.28125 0.758301V1.3833H2.5C1.1215 1.3833 0 2.5048 0 3.8833V13.6333C0 15.0118 1.1215 16.1333 2.5 16.1333H13.5C14.8785 16.1333 16 15.0118 16 13.6333C16 13.2881 15.7202 13.0083 15.375 13.0083C15.0298 13.0083 14.75 13.2881 14.75 13.6333C14.75 14.3226 14.1892 14.8833 13.5 14.8833H2.5C1.81075 14.8833 1.25 14.3226 1.25 13.6333V3.8833C1.25 3.19405 1.81075 2.6333 2.5 2.6333H3.28125V3.2583C3.28125 3.60349 3.56106 3.8833 3.90625 3.8833C4.25144 3.8833 4.53125 3.60349 4.53125 3.2583V2.6333H7.34375V3.2583C7.34375 3.60349 7.62356 3.8833 7.96875 3.8833C8.31394 3.8833 8.59375 3.60349 8.59375 3.2583V2.6333H11.4375V3.2583C11.4375 3.60349 11.7173 3.8833 12.0625 3.8833C12.4077 3.8833 12.6875 3.60349 12.6875 3.2583V2.6333H13.5C14.1892 2.6333 14.75 3.19405 14.75 3.8833V10.5083C14.75 10.8535 15.0298 11.1333 15.375 11.1333Z" fill="white"/>
<path d="M3.90625 12.7583C4.25143 12.7583 4.53125 12.4785 4.53125 12.1333C4.53125 11.7881 4.25143 11.5083 3.90625 11.5083C3.56107 11.5083 3.28125 11.7881 3.28125 12.1333C3.28125 12.4785 3.56107 12.7583 3.90625 12.7583Z" fill="white"/>
<path d="M3.90625 7.3208C4.25143 7.3208 4.53125 7.04098 4.53125 6.6958C4.53125 6.35062 4.25143 6.0708 3.90625 6.0708C3.56107 6.0708 3.28125 6.35062 3.28125 6.6958C3.28125 7.04098 3.56107 7.3208 3.90625 7.3208Z" fill="white"/>
<path d="M3.90625 10.0396C4.25143 10.0396 4.53125 9.75973 4.53125 9.41455C4.53125 9.06937 4.25143 8.78955 3.90625 8.78955C3.56107 8.78955 3.28125 9.06937 3.28125 9.41455C3.28125 9.75973 3.56107 10.0396 3.90625 10.0396Z" fill="white"/>
<path d="M6.625 10.0396C6.97018 10.0396 7.25 9.75973 7.25 9.41455C7.25 9.06937 6.97018 8.78955 6.625 8.78955C6.27982 8.78955 6 9.06937 6 9.41455C6 9.75973 6.27982 10.0396 6.625 10.0396Z" fill="white"/>
<path d="M6.625 7.3208C6.97018 7.3208 7.25 7.04098 7.25 6.6958C7.25 6.35062 6.97018 6.0708 6.625 6.0708C6.27982 6.0708 6 6.35062 6 6.6958C6 7.04098 6.27982 7.3208 6.625 7.3208Z" fill="white"/>
<path d="M6.625 12.7583C6.97018 12.7583 7.25 12.4785 7.25 12.1333C7.25 11.7881 6.97018 11.5083 6.625 11.5083C6.27982 11.5083 6 11.7881 6 12.1333C6 12.4785 6.27982 12.7583 6.625 12.7583Z" fill="white"/>
</g>
<defs>
<clipPath id="clip0_2_1068">
<rect width="16" height="16" fill="white" transform="translate(0 0.133301)"/>
</clipPath>
</defs>
</svg>
