<svg width="20" height="20" viewBox="0 0 20 20" fill="none" xmlns="http://www.w3.org/2000/svg">
<path d="M13.5548 20C12.6787 20 11.8337 19.5112 11.4267 18.6798L10.2487 16.4741L9.58047 17.7497C9.56336 17.7824 9.54387 17.8139 9.52231 17.8439C9.08375 18.4525 8.36218 18.6688 7.82795 18.6688C7.82366 18.6688 7.81936 18.6688 7.81502 18.6687C7.21799 18.6648 6.62349 18.4086 6.18407 17.9658C5.7277 17.506 5.47641 16.8955 5.47641 16.2468V6.13135C5.47641 5.20872 5.99626 4.39419 6.83302 4.00559C7.66186 3.62066 8.60941 3.74301 9.3123 4.32391L14.4587 8.15641C14.8048 8.41411 14.8764 8.90356 14.6187 9.24962C14.361 9.59568 13.8716 9.66728 13.5255 9.40958L8.36175 5.56416C8.34897 5.55463 8.33647 5.54474 8.32429 5.53443C7.97088 5.23599 7.59733 5.37349 7.49115 5.42275C7.38506 5.47201 7.03896 5.66869 7.03896 6.13135V16.2469C7.03896 16.7503 7.45338 17.1038 7.82538 17.1063C7.82655 17.1063 7.8278 17.1063 7.82897 17.1063C7.981 17.1063 8.14815 17.0433 8.23143 16.9579L9.55012 14.4408C9.68442 14.1844 9.94958 14.0232 10.239 14.0221C10.2401 14.0221 10.2411 14.0221 10.2422 14.0221C10.5304 14.0221 10.7954 14.1808 10.9313 14.4353L12.8122 17.957C12.8175 17.9669 12.8226 17.9769 12.8275 17.9871C13.015 18.3778 13.4875 18.5478 13.8808 18.3657C14.0766 18.2752 14.2244 18.1135 14.2969 17.9103C14.3673 17.7134 14.3583 17.5018 14.2719 17.3123L12.3736 13.9343C12.2376 13.6924 12.2402 13.3965 12.3804 13.157C12.5205 12.9175 12.7772 12.7703 13.0547 12.7703H15.7331C16.1864 12.7472 16.3674 12.3902 16.4123 12.2805C16.4584 12.168 16.5836 11.7743 16.2601 11.4312C15.9642 11.1173 15.9787 10.6229 16.2926 10.3269C16.6066 10.0308 17.101 10.0455 17.397 10.3594C18.038 11.0392 18.2148 12.0023 17.8583 12.8727C17.5038 13.7384 16.7071 14.2976 15.7792 14.3323C15.7695 14.3327 15.7598 14.3328 15.75 14.3328H14.3899L15.6476 16.5709C15.6553 16.5846 15.6626 16.5986 15.6695 16.6127C15.948 17.1872 15.9832 17.8347 15.7684 18.4359C15.5537 19.0372 15.1163 19.5159 14.5368 19.7839C14.2195 19.9305 13.8849 20 13.5548 20ZM6.35978 3.06808C6.73814 2.86062 6.87662 2.38573 6.66915 2.0074L6.00508 0.796455C5.79762 0.418131 5.32281 0.279653 4.94445 0.487116C4.56609 0.694579 4.42761 1.16947 4.63507 1.54779L5.29914 2.75874C5.44125 3.01788 5.70875 3.16449 5.98485 3.16449C6.1118 3.16449 6.24063 3.13347 6.35978 3.06808ZM4.70769 4.8447C4.88062 4.44938 4.70035 3.98871 4.30507 3.81578L3.05506 3.2689C2.65974 3.09593 2.19911 3.27624 2.02614 3.67152C1.85321 4.06684 2.03348 4.52751 2.42876 4.70044L3.67877 5.24732C3.78069 5.29193 3.88694 5.31302 3.99151 5.31302C4.29249 5.31298 4.57933 5.13806 4.70769 4.8447ZM9.57692 2.31764L10.0066 1.02857C10.1431 0.619227 9.92184 0.176762 9.5125 0.0403542C9.10332 -0.0961705 8.6607 0.125121 8.52429 0.534461L8.0946 1.82354C7.95815 2.23288 8.17936 2.67534 8.5887 2.81175C8.67066 2.83909 8.75394 2.85206 8.83585 2.85206C9.16293 2.85206 9.46781 2.64499 9.57692 2.31764ZM11.6445 4.29997L12.6992 3.51871C13.0459 3.26187 13.1188 2.77261 12.862 2.42588C12.6051 2.07916 12.1158 2.00631 11.7692 2.26311L10.7145 3.04437C10.3677 3.30121 10.2949 3.79047 10.5517 4.13719C10.705 4.34411 10.941 4.45348 11.1801 4.45348C11.3417 4.45348 11.5047 4.40352 11.6445 4.29997ZM3.11021 8.69446L4.2821 8.22571C4.68273 8.06547 4.87757 7.61078 4.71734 7.21019C4.55706 6.80952 4.10233 6.61468 3.70182 6.77495L2.52993 7.2437C2.1293 7.40394 1.93446 7.85863 2.09469 8.25922C2.21688 8.56469 2.51025 8.75056 2.82029 8.75056C2.91689 8.75056 3.01506 8.73251 3.11021 8.69446Z" fill="white"/>
</svg>
