<svg width="48" height="48" viewBox="0 0 48 48" fill="none" xmlns="http://www.w3.org/2000/svg">
<path d="M45.0996 7.28081L38.4647 0.646125C38.048 0.2295 37.494 0 36.9047 0H8.97001C7.7536 0 6.76388 0.989719 6.76388 2.20613V24.0484H5.21251C3.58163 24.0484 2.25488 25.3752 2.25488 27.006V40.5332C2.25488 42.1641 3.58163 43.4909 5.21251 43.4909H28.5094C29.7259 43.4909 30.7155 42.5012 30.7155 41.2848V30.7637C30.7155 29.5472 29.7258 28.5575 28.5094 28.5575H5.21251C4.35704 28.5575 3.66113 27.8616 3.66113 27.0061C3.66113 26.1506 4.35704 25.4547 5.21251 25.4547H6.76388V26.2549C6.76388 26.6432 7.07869 26.958 7.46701 26.958C7.85532 26.958 8.17013 26.6432 8.17013 26.2549V2.20613C8.17013 1.76503 8.52901 1.40625 8.97001 1.40625H36.0728V8.21822C36.0728 9.02034 36.7253 9.67294 37.5275 9.67294H44.3394V45.7939C44.3394 46.235 43.9806 46.5938 43.5396 46.5938H8.97001C8.52891 46.5938 8.17013 46.235 8.17013 45.7939C8.17013 45.4056 7.85532 45.0907 7.46701 45.0907C7.07869 45.0907 6.76388 45.4056 6.76388 45.7939C6.76388 47.0104 7.7536 48 8.97001 48H43.5396C44.7561 48 45.7457 47.0103 45.7457 45.7939V8.84081C45.7458 8.25159 45.5163 7.69753 45.0996 7.28081ZM5.21251 29.9637H28.5094C28.9505 29.9637 29.3093 30.3226 29.3093 30.7637V41.2849C29.3093 41.726 28.9504 42.0847 28.5094 42.0847H5.21251C4.35704 42.0847 3.66113 41.3888 3.66113 40.5333V29.5233C4.11235 29.8026 4.64391 29.9637 5.21251 29.9637ZM37.4791 8.21822V1.64934L44.0966 8.26669H37.5275C37.5009 8.26669 37.4791 8.24494 37.4791 8.21822Z" fill="white"/>
<path d="M22.1807 39.7113C22.569 39.7113 22.8838 39.3965 22.8838 39.0082V36.6707H24.4073C24.7956 36.6707 25.1104 36.3559 25.1104 35.9676C25.1104 35.5793 24.7956 35.2644 24.4073 35.2644H22.8838V33.7432H24.5995C24.9878 33.7432 25.3026 33.4284 25.3026 33.04C25.3026 32.6516 24.9878 32.3369 24.5995 32.3369H22.1807C21.7924 32.3369 21.4775 32.6516 21.4775 33.04V39.0081C21.4775 39.3964 21.7924 39.7113 22.1807 39.7113Z" fill="white"/>
<path d="M14.7879 39.4403C14.9196 39.5711 15.0978 39.6444 15.2833 39.6444H15.2859C15.3359 39.6442 16.5139 39.6397 16.9844 39.6315C18.7219 39.6011 19.983 38.0841 19.983 36.0242C19.983 33.8588 18.7536 32.4039 16.9238 32.4039H15.2715C15.0847 32.4039 14.9058 32.4782 14.7739 32.6104C14.642 32.7426 14.568 32.9217 14.5684 33.1084V33.113V33.1131V38.8465C14.5684 38.8948 14.5732 38.942 14.5825 38.9875C14.5938 39.1581 14.666 39.3193 14.7879 39.4403ZM16.9238 33.8102C18.1426 33.8102 18.5767 34.9538 18.5767 36.0242C18.5767 37.5253 17.7647 38.2115 16.9598 38.2254C16.7361 38.2294 16.337 38.2325 15.984 38.2346C15.9817 37.5448 15.977 34.5277 15.9758 33.8102H16.9238Z" fill="white"/>
<path d="M8.94629 39.7334C9.3346 39.7334 9.64941 39.4187 9.64941 39.0303V37.1181C9.99854 37.1163 10.3955 37.1145 10.6203 37.1145C11.9618 37.1145 13.0533 36.038 13.0533 34.7148C13.0533 33.3915 11.9618 32.3149 10.6203 32.3149H8.94629C8.75944 32.3149 8.58029 32.3894 8.44829 32.5217C8.31685 32.6535 8.24326 32.8321 8.24326 33.0181H8.24316V39.0302C8.24316 39.4187 8.55798 39.7334 8.94629 39.7334ZM10.6203 33.7213C11.1769 33.7213 11.647 34.1763 11.647 34.7148C11.647 35.2533 11.1769 35.7083 10.6203 35.7083C10.397 35.7083 10.005 35.7101 9.65719 35.7119C9.65532 35.3527 9.65251 34.0971 9.65148 33.7214H10.6203V33.7213Z" fill="white"/>
<path d="M22.1207 20.387C20.3926 20.9325 18.619 21.6874 17.6729 22.664C16.8922 23.4698 16.7507 24.4047 17.2846 25.229C17.647 25.7884 18.1451 26.0808 18.7051 26.0808C18.9201 26.0808 19.1443 26.0377 19.3733 25.9501C20.1995 25.6342 21.0918 24.7354 22.1012 23.2023C22.4271 22.7074 22.757 22.1574 23.0854 21.5624C23.205 21.5272 23.3268 21.4922 23.4515 21.4574C25.4358 20.9022 27.6808 20.4992 29.651 20.3309C30.852 21.4922 32.0935 22.3971 33.1518 22.644C34.3161 22.9155 35.2392 22.3831 35.6204 21.2197C35.8514 20.515 35.5855 19.8505 34.9091 19.4422C34.2136 19.0223 33.0051 18.8195 31.3179 18.8388C30.9585 18.843 30.5792 18.8576 30.1845 18.8821C29.4266 18.1004 28.638 17.1661 27.8785 16.1344C27.2901 15.3352 26.7642 14.5354 26.3194 13.7752C26.3678 13.6086 26.4137 13.4443 26.4573 13.2828C26.938 11.5004 27.1095 10.1356 26.9669 9.22646C26.7609 7.91349 25.9135 7.72702 25.5587 7.70789C24.3508 7.64255 23.5371 8.25202 23.3823 9.33811C23.2593 10.2009 23.5495 11.388 24.2446 12.8662C24.4099 13.2176 24.5953 13.5797 24.7988 13.9496C24.723 14.193 24.6407 14.4462 24.5517 14.7097C23.9035 16.6273 23.0256 18.6706 22.1207 20.387ZM18.7441 24.6708C18.694 24.6771 18.6094 24.6877 18.4649 24.4645C18.3472 24.2828 18.3408 24.1457 18.4412 23.9586C18.676 23.521 19.4775 22.9069 21.0284 22.2726C19.9459 23.9515 19.137 24.6218 18.7441 24.6708ZM34.2958 20.734C34.2947 20.7427 34.2919 20.7583 34.2841 20.7819C34.1085 21.3178 33.8726 21.3683 33.4712 21.2746C32.9813 21.1604 32.359 20.7984 31.6649 20.2444C33.5444 20.2594 34.2 20.598 34.2958 20.734ZM24.7744 9.53667C24.8031 9.33567 24.8353 9.10964 25.3702 9.10964C25.4039 9.10964 25.4396 9.11058 25.4773 9.11236C25.6374 9.30746 25.7198 10.1755 25.3493 11.8934C24.9129 10.8926 24.6997 10.0612 24.7744 9.53667ZM25.7535 15.5371C26.0622 16.0113 26.3941 16.4903 26.746 16.9682C27.2507 17.6539 27.8209 18.3658 28.424 19.0453C27.7263 19.1295 27.0067 19.2381 26.2868 19.3688C25.7997 19.4572 24.9504 19.624 23.9563 19.872C24.1768 19.4147 24.3942 18.9408 24.6069 18.4535C25.0297 17.4852 25.4186 16.4943 25.7535 15.5371Z" fill="white"/>
</svg>
