<svg width="16" height="16" viewBox="0 0 16 16" fill="none" xmlns="http://www.w3.org/2000/svg">
<g clip-path="url(#clip0_2_310)">
<path d="M1.73367 0.717495C1.69764 0.75601 1.63676 0.836458 1.59607 0.891745C0.839742 1.8947 -0.0641248 3.43655 0.00358768 4.92467C0.118512 7.41636 3.48115 10.7281 4.50926 11.6838C5.53768 12.6392 9.08605 15.7512 11.5771 15.6835C11.9924 15.6732 12.4325 15.586 12.8848 15.4238C13.9287 15.0495 14.8711 14.3376 15.4697 13.8136C15.4697 13.8136 15.5986 13.704 15.6483 13.6512C15.7734 13.5161 15.8725 13.3188 15.9511 13.0483C15.9912 12.9101 15.9999 12.7644 15.9999 12.6669C15.9999 12.5582 15.989 12.3476 15.9175 12.1559C15.8197 11.8938 15.7076 11.7062 15.5734 11.58C15.474 11.4878 13.228 9.72821 13.2137 9.71827L13.1966 9.70709C13.0749 9.6136 12.9478 9.5406 12.8186 9.48997C12.4801 9.35734 12.1052 9.35206 11.7626 9.47444C11.5448 9.55241 11.3488 9.68131 11.1976 9.84469L10.4257 10.6709C10.3533 10.7486 10.2188 10.829 10.1713 10.8405C10.1213 10.8498 10.0865 10.8523 10.0642 10.8529L4.88385 6.03882C4.87142 6.02701 4.86521 6.01552 4.8618 6.00745C4.86428 5.99999 4.86739 5.99347 4.86894 5.9885C4.88789 5.94998 4.97734 5.82761 5.08916 5.70647L5.85294 4.87963C6.25704 4.44509 6.35737 3.76921 6.10019 3.24211C6.00856 3.05419 5.88307 2.9138 5.82499 2.84764L5.79486 2.81037C5.77995 2.79328 3.88897 0.718116 3.80418 0.640154C3.5939 0.444782 3.26279 0.339175 2.79222 0.316811C2.53069 0.304387 2.20269 0.381418 2.01228 0.49976C1.88991 0.576479 1.79828 0.647919 1.73367 0.717495ZM3.16029 1.31479C3.26621 1.42226 4.98728 3.30734 5.07736 3.40611L5.14072 3.48283C5.1665 3.51172 5.22707 3.57974 5.26248 3.6518C5.35442 3.84065 5.31839 4.08665 5.1693 4.24724L4.40458 5.075C4.31513 5.1716 4.0977 5.41885 4.01135 5.62478C3.9542 5.76207 3.92718 5.88165 3.92687 6.02049C3.93619 6.28575 4.04863 6.53299 4.24679 6.71967L9.47928 11.5822C9.67838 11.767 9.96787 11.8261 10.34 11.7574C10.6276 11.7043 10.9391 11.4869 11.1069 11.3073L11.88 10.4796C11.9315 10.424 11.9999 10.3799 12.0769 10.3519C12.2055 10.3059 12.3521 10.3081 12.4788 10.3578C12.5527 10.3867 12.6142 10.4348 12.6344 10.4507C12.6537 10.4656 12.6692 10.4765 12.6832 10.4852C12.8984 10.652 14.8298 12.1699 14.9345 12.2581C14.9348 12.2587 14.9804 12.31 15.0447 12.4817C15.0538 12.506 15.068 12.5774 15.068 12.6666C15.068 12.7308 15.0609 12.7728 15.0562 12.788C15.0078 12.9545 14.9677 13.0129 14.9677 13.0141C14.9376 13.0443 14.8748 13.0961 14.8643 13.1051C14.3179 13.5832 13.4768 14.2215 12.5701 14.5463C12.2117 14.6749 11.87 14.7439 11.5532 14.7517C9.85139 14.7979 7.03667 12.7597 5.14383 11.0008C3.25068 9.24211 1.01275 6.58362 0.934478 4.88181C0.877326 3.65491 1.67528 2.33452 2.33221 1.46295L2.35737 1.42941C2.37197 1.40953 2.39837 1.37226 2.41204 1.3561C2.43533 1.33405 2.47012 1.31262 2.49776 1.29523C2.53907 1.2741 2.66735 1.24428 2.74749 1.24832C3.02269 1.26168 3.15004 1.31107 3.16029 1.31479Z" fill="#002122"/>
</g>
<defs>
<clipPath id="clip0_2_310">
<rect width="16" height="16" fill="white" transform="translate(0 16) rotate(-90)"/>
</clipPath>
</defs>
</svg>
