<svg width="25" height="14" viewBox="0 0 25 14" fill="none" xmlns="http://www.w3.org/2000/svg">
<path d="M24.0453 12.3671C23.9808 12.2591 23.5818 11.392 21.6617 9.60987C19.6515 7.74374 19.9215 8.04676 22.3427 4.82002C23.8173 2.85487 24.4069 1.65478 24.2224 1.14175C24.0468 0.65271 22.9623 0.781719 22.9623 0.781719L19.356 0.802721C19.356 0.802721 19.089 0.766718 18.8895 0.885227C18.696 1.00224 18.5714 1.27226 18.5714 1.27226C18.5714 1.27226 17.9999 2.79337 17.2378 4.08646C15.6312 6.81517 14.9877 6.95918 14.7252 6.78967C14.1146 6.39514 14.2676 5.20255 14.2676 4.35648C14.2676 1.71179 14.6682 0.609207 13.4861 0.324185C13.093 0.229678 12.805 0.166674 11.8015 0.156173C10.5144 0.142672 9.42378 0.160673 8.80723 0.462196C8.3962 0.663211 8.07968 1.11174 8.2732 1.13725C8.51171 1.16875 9.05175 1.28276 9.33827 1.67279C9.7088 2.17532 9.6953 3.30641 9.6953 3.30641C9.6953 3.30641 9.90831 6.41914 9.19876 6.80617C8.71123 7.07169 8.04368 6.53015 6.61107 4.05346C5.87752 2.78587 5.32248 1.38326 5.32248 1.38326C5.32248 1.38326 5.21597 1.12224 5.02546 0.982735C4.79444 0.813222 4.47042 0.759218 4.47042 0.759218L1.04117 0.780219C1.04117 0.780219 0.526632 0.795221 0.337618 1.01874C0.169606 1.21825 0.324117 1.62928 0.324117 1.62928C0.324117 1.62928 3.00931 7.91025 6.04853 11.077C8.83724 13.9797 12.0025 13.7892 12.0025 13.7892H13.4366C13.4366 13.7892 13.8701 13.7412 14.0906 13.5027C14.2946 13.2836 14.2871 12.8726 14.2871 12.8726C14.2871 12.8726 14.2586 10.948 15.1527 10.6645C16.0333 10.3854 17.1643 12.5246 18.3629 13.3482C19.269 13.9707 19.9575 13.8342 19.9575 13.8342L23.1633 13.7892C23.1633 13.7892 24.8404 13.6857 24.0453 12.3671Z" fill="#4D75A3"/>
</svg>
