<svg width="21" height="24" viewBox="0 0 21 24" fill="none" xmlns="http://www.w3.org/2000/svg">
<path d="M19.9089 12.1505C19.6609 11.073 18.7795 10.2781 17.7187 10.1598C15.2072 9.87927 12.6639 9.87795 10.1331 9.87927C7.60122 9.87795 5.05848 9.87927 2.54618 10.1598C1.48589 10.2784 0.605049 11.0732 0.357312 12.1505C0.00423479 13.6848 0 15.3596 0 16.9395C0 18.5193 3.15518e-08 20.1939 0.353077 21.7283C0.600814 22.8055 1.48165 23.6003 2.54247 23.7189C5.05425 23.9997 7.59699 24.0008 10.1286 23.9997C12.6605 24.001 15.2027 23.9997 17.7153 23.7189C18.7756 23.6003 19.6569 22.8055 19.9047 21.7283C20.2575 20.1939 20.2593 18.5193 20.2593 16.9395C20.2591 15.3594 20.2617 13.6848 19.9089 12.1505ZM5.77866 13.3396H4.31236V21.1312H2.95034V13.3396H1.51077V12.0634H5.77866V13.3396ZM9.47804 21.1314H8.25285V20.3943C7.76612 20.9522 7.30399 21.2243 6.85378 21.2243C6.45915 21.2243 6.18759 21.0645 6.06504 20.7222C5.99835 20.5179 5.95706 20.1945 5.95706 19.7175V14.3748H7.18118V19.3494C7.18118 19.6363 7.18118 19.7853 7.1923 19.8255C7.22168 20.0156 7.31458 20.1119 7.47868 20.1119C7.7243 20.1119 7.98103 19.9227 8.25259 19.5386V14.3748H9.47777L9.47804 21.1314ZM14.1292 19.1035C14.1292 19.7284 14.0871 20.1786 14.0053 20.465C13.8417 20.9676 13.5143 21.2243 13.0273 21.2243C12.5917 21.2243 12.1714 20.9824 11.7619 20.4769V21.1317H10.5378V12.0634H11.7619V15.0248C12.1573 14.5381 12.5771 14.2919 13.0273 14.2919C13.5143 14.2919 13.842 14.5484 14.0053 15.0542C14.0876 15.326 14.1292 15.7728 14.1292 16.4125V19.1035ZM18.7496 17.9762H16.3011V19.1739C16.3011 19.7993 16.5057 20.1116 16.9265 20.1116C17.228 20.1116 17.4035 19.9478 17.4734 19.6207C17.4847 19.5542 17.5009 19.2821 17.5009 18.7912H18.7499V18.9698C18.7499 19.3645 18.7348 19.6363 18.7237 19.7586C18.6827 20.0296 18.5863 20.2755 18.4378 20.492C18.0988 20.9827 17.5964 21.2246 16.957 21.2246C16.3165 21.2246 15.8289 20.9941 15.4751 20.5327C15.2154 20.1945 15.082 19.6619 15.082 18.9439V16.5774C15.082 15.8551 15.2003 15.3268 15.4605 14.9854C15.8141 14.523 16.3014 14.2927 16.9268 14.2927C17.5411 14.2927 18.0281 14.523 18.3711 14.9854C18.6276 15.3268 18.7502 15.8551 18.7502 16.5774V17.9762H18.7496Z" fill="#FF0000"/>
<path d="M16.9158 15.3943C16.5066 15.3943 16.3015 15.7069 16.3015 16.3316V16.9567H17.5256V16.3316C17.5254 15.7069 17.3208 15.3943 16.9158 15.3943Z" fill="#FF0000"/>
<path d="M12.3723 15.3943C12.1706 15.3943 11.9663 15.4896 11.7617 15.6921V19.8102C11.966 20.0151 12.1706 20.1119 12.3723 20.1119C12.7254 20.1119 12.9048 19.8102 12.9048 19.2001V16.3162C12.9048 15.7069 12.7254 15.3943 12.3723 15.3943Z" fill="#FF0000"/>
<path d="M13.0564 9.25654C13.5077 9.25654 13.9772 8.98233 14.4698 8.41804V9.16284H15.7072V2.33447H14.4698V7.55335C14.1956 7.94083 13.9357 8.13246 13.6882 8.13246C13.5225 8.13246 13.4251 8.03453 13.3981 7.84264C13.383 7.80214 13.383 7.65154 13.383 7.36172V2.33447H12.1497V7.73386C12.1497 8.2161 12.1909 8.54244 12.2592 8.74915C12.3836 9.09508 12.6581 9.25654 13.0564 9.25654Z" fill="black"/>
<path d="M4.44219 5.45179V9.16281H5.81427V5.45179L7.46479 0H6.07736L5.1412 3.59827L4.1672 0H2.72339C3.01268 0.849344 3.31362 1.70292 3.60291 2.55306C4.04306 3.83092 4.3178 4.79434 4.44219 5.45179Z" fill="black"/>
<path d="M9.30392 9.25644C9.92379 9.25644 10.4055 9.02326 10.7472 8.55744C11.0068 8.21574 11.1312 7.67739 11.1312 6.95165V4.56057C11.1312 3.83059 11.0071 3.297 10.7472 2.95213C10.4055 2.48498 9.92406 2.2518 9.30392 2.2518C8.68723 2.2518 8.20579 2.48498 7.86329 2.95213C7.60047 3.297 7.47607 3.83059 7.47607 4.56057V6.95165C7.47607 7.67739 7.60047 8.21574 7.86329 8.55744C8.20552 9.02326 8.68723 9.25644 9.30392 9.25644ZM8.71343 4.31257C8.71343 3.68078 8.90506 3.36582 9.30392 3.36582C9.70279 3.36582 9.89389 3.68052 9.89389 4.31257V7.18483C9.89389 7.81661 9.70279 8.13263 9.30392 8.13263C8.90506 8.13263 8.71343 7.81661 8.71343 7.18483V4.31257Z" fill="black"/>
</svg>
