<svg width="13" height="16" viewBox="0 0 13 16" fill="none" xmlns="http://www.w3.org/2000/svg">
<path d="M11.7833 2.78191C10.5618 1.01409 8.62597 0 6.47251 0C4.31904 0 2.38319 1.01409 1.16172 2.78191C-0.053745 4.54078 -0.334401 6.76756 0.409474 8.73491C0.608443 9.27216 0.924724 9.79412 1.34729 10.2832L6.0466 15.8031C6.15288 15.928 6.3086 16 6.47251 16C6.63641 16 6.79213 15.928 6.89841 15.8031L11.5964 10.2847C12.0208 9.79281 12.3367 9.27141 12.534 8.73847C13.2794 6.76756 12.9988 4.54078 11.7833 2.78191ZM11.4864 8.34666C11.3343 8.75784 11.0858 9.16438 10.7485 9.55541C10.7476 9.55634 10.7466 9.55728 10.7459 9.55841L6.47251 14.5777L2.19651 9.55525C1.85935 9.16456 1.61094 8.75806 1.45729 8.34294C0.842099 6.71591 1.07557 4.87478 2.08201 3.41819C3.0916 1.95694 4.69197 1.11888 6.47251 1.11888C8.25301 1.11888 9.85319 1.95691 10.8628 3.41819C11.8694 4.87478 12.1031 6.71591 11.4864 8.34666Z" fill="#002122"/>
<path d="M6.47211 3.31934C4.74473 3.31934 3.33923 4.72464 3.33923 6.4522C3.33923 8.17976 4.74455 9.58507 6.47211 9.58507C8.19967 9.58507 9.60498 8.17976 9.60498 6.4522C9.60498 4.72483 8.19948 3.31934 6.47211 3.31934ZM6.47211 8.46617C5.36161 8.46617 4.45811 7.56267 4.45811 6.45217C4.45811 5.34167 5.36161 4.43818 6.47211 4.43818C7.58261 4.43818 8.48611 5.34167 8.48611 6.45217C8.48611 7.56267 7.58261 8.46617 6.47211 8.46617Z" fill="#002122"/>
</svg>
